<svg width="938" height="227" fill="none" xmlns="http://www.w3.org/2000/svg"><path fill-rule="evenodd" clip-rule="evenodd" d="M904.5 140.284a.5.5 0 01-.5.5c-7.765 0-11.904 1.715-18.521 4.459-.517.214-1.05.435-1.6.661-.922.38-1.972.146-3.021-.392-1.059-.544-2.216-1.446-3.421-2.575-2.415-2.261-5.118-5.521-7.756-8.933-1.769-2.288-3.521-4.66-5.143-6.857-.798-1.08-1.564-2.118-2.286-3.083-1.099-1.468-2.094-2.767-2.947-3.8-.862-1.044-1.549-1.78-2.035-2.152-12.966-9.915-31.086-1.841-34.189 12.124-.764 3.44-1.589 6.025-2.487 7.92-.897 1.892-1.885 3.137-2.998 3.844-2.273 1.444-4.797.501-7.365-.878a76.53 76.53 0 01-2.342-1.332c-1.964-1.146-4.042-2.358-6.323-3.158-3.16-1.109-6.631-1.385-10.506.552-1.183.592-2.849 2.003-4.717 3.843-1.853 1.825-3.858 4.024-5.713 6.141a330.522 330.522 0 00-4.787 5.616l-.005.006c-.619.739-1.126 1.344-1.48 1.754-.176.203-.32.366-.423.474a1.762 1.762 0 01-.154.147l-.001.001c-.017.013-.079.065-.166.098-.034.012-.183.068-.362 0a.506.506 0 01-.322-.41c-.619-4.952-3.397-10.291-7.309-14.192-3.915-3.903-8.888-6.294-13.881-5.526-8.079 1.243-12.745 6.118-16.634 11.984-1.244 1.877-2.395 3.832-3.553 5.8a227.922 227.922 0 01-2.016 3.381c-1.875 3.065-3.889 6.031-6.375 8.516-.307.308-.65.505-1.026.576-.374.07-.735.007-1.065-.127-.637-.257-1.235-.808-1.765-1.367-.271-.286-.54-.591-.798-.885l-.002-.002c-.26-.295-.508-.578-.751-.833a6.536 6.536 0 00-.682-.64c-.215-.168-.39-.263-.527-.302-1.876-.536-4.395-.659-6.949-.52-2.547.139-5.084.534-6.978 1.008-3.039.76-6.897 2.759-11.205 5.306-2.338 1.382-4.77 2.902-7.257 4.457-2.108 1.317-4.255 2.659-6.419 3.963-4.683 2.824-9.379 5.429-13.665 7.052-4.267 1.615-8.232 2.296-11.399 1.13-2.421-.893-4.558-1.845-6.569-2.769l-1.048-.482c-1.627-.751-3.184-1.469-4.775-2.113-3.841-1.554-7.862-2.666-13.389-2.666-2.541 0-3.975.543-4.926 1.215a6.503 6.503 0 00-1.201 1.128c-.15.175-.29.35-.433.528l-.067.083c-.164.204-.333.411-.51.607-.357.396-.764.769-1.299 1.037-.538.269-1.174.417-1.969.411-1.563-.014-3.784-.629-7.207-2.15-5.114-2.273-9.705-5.913-14.24-9.688-.53-.441-1.06-.884-1.589-1.327-4.017-3.363-8.037-6.729-12.433-9.323-1.438-.849-3.981-2.702-7.193-5.042a937.318 937.318 0 00-3.583-2.603c-4.911-3.546-10.812-7.687-16.715-11.223-5.913-3.541-11.785-6.449-16.644-7.558-2.428-.554-4.56-.649-6.302-.184-1.72.46-3.083 1.472-3.998 3.2-2.757 5.209-2.562 10.942-2.362 16.799.016.457.031.915.045 1.374.195 6.279.124 12.639-4.178 18.171-5.992 7.704-10.212 17.234-10.212 27.258 0 2.549-.742 10.1-1.858 16.689-.558 3.295-1.215 6.381-1.929 8.495-.352 1.045-.738 1.911-1.167 2.44-.215.264-.486.502-.825.587-.374.093-.722-.025-1.006-.261-2.723-2.27-7.261-3.393-12.749-3.949-4.695-.475-9.995-.529-15.292-.583-.871-.009-1.741-.017-2.609-.028-6.128-.076-12.124-.245-16.941-1.187-4.787-.936-8.597-2.672-10.094-6.041-.931-2.092-1.319-4.115-1.588-5.954a93.723 93.723 0 01-.171-1.228c-.183-1.354-.346-2.561-.682-3.64-.422-1.359-1.105-2.457-2.427-3.273-1.346-.83-3.401-1.397-6.631-1.567-4.576-.241-7.677-1.054-9.78-2.435-2.129-1.399-3.177-3.34-3.733-5.684-.48-2.021-.602-4.385-.736-6.988l-.06-1.143c-.168-3.077-.424-6.507-1.304-10.25-.142-.603-.287-1.495-.451-2.509l-.15-.915c-.231-1.399-.509-2.95-.875-4.357-.37-1.421-.816-2.638-1.36-3.406-.269-.38-.537-.613-.795-.725-.242-.105-.516-.121-.86.012-8.319 3.235-16.874 5.5-25.455 7.77l-.552.146c-6.779 1.795-11.434 2.766-14.719 2.91-3.302.145-5.328-.543-6.722-2.175-.679-.795-1.184-1.787-1.624-2.939-.441-1.152-.83-2.496-1.262-4.007l-.054-.189c-.859-2.998-1.92-6.705-3.929-11.125-1.737-3.822-4.146-6.442-6.896-8.788-1.231-1.051-2.526-2.042-3.863-3.066l-.484-.372c-1.505-1.154-3.054-2.36-4.593-3.727-1.117-.993-2.879-2.034-4.951-3.139-.909-.484-1.893-.989-2.9-1.505a195.003 195.003 0 01-3.706-1.936c-2.211-1.196-4.327-2.459-5.938-3.799-1.596-1.327-2.787-2.803-2.98-4.445-.389-3.299-1.694-4.82-3.367-5.369-1.745-.573-4.06-.154-6.579.852-5.011 2-10.401 6.138-12.62 7.912-2.705 2.165-5.382 4.275-8.023 6.357-19.344 15.252-36.781 29-49.565 51.373l-.096.167c-1.172 2.054-5.242 9.184-9.186 13.776-1.016 1.184-2.039 2.217-3.016 2.954-.961.725-1.951 1.22-2.887 1.199-1.002-.021-1.797-.622-2.343-1.735-.534-1.088-.864-2.72-.977-4.978-.339-6.779-2.832-14.025-6.054-21.062-2.517-5.497-5.463-10.834-8.148-15.699a677.877 677.877 0 01-2.181-3.971c-13.115-24.149-27.655-49.031-50.464-64.954a435.92 435.92 0 00-4.476-3.075c-3.574-2.432-6.172-4.2-8.51-6.343-3.237-2.967-5.98-6.652-10.21-13.789l-.941-1.592c-4.316-7.305-8.927-15.111-14.613-20.495-3.042-2.88-6.37-5.044-10.097-6.066-3.721-1.02-7.876-.914-12.597.802-1.645.599-3.404 1.812-5.195 3.419-1.785 1.602-3.575 3.572-5.281 5.65-2.785 3.39-5.326 7.037-7.256 9.809a345.72 345.72 0 01-1.214 1.736C63.495 76.436 45.833 91.663 27.963 107.07c-2.878 2.481-5.761 4.966-8.634 7.475a.5.5 0 11-.658-.753c2.882-2.516 5.77-5.007 8.65-7.49 17.875-15.412 35.434-30.551 49.142-49.97.365-.518.768-1.096 1.202-1.72 1.93-2.77 4.5-6.46 7.312-9.884 1.724-2.1 3.55-4.11 5.386-5.76 1.832-1.644 3.703-2.952 5.52-3.613 4.899-1.781 9.266-1.908 13.204-.828 3.931 1.078 7.399 3.349 10.52 6.305 5.794 5.485 10.474 13.41 14.77 20.683.321.544.64 1.085.958 1.62 4.214 7.112 6.897 10.695 10.025 13.562 2.281 2.09 4.795 3.802 8.338 6.213 1.351.919 2.851 1.94 4.544 3.122 23.027 16.075 37.663 41.162 50.771 65.297.69 1.27 1.417 2.587 2.166 3.944 2.688 4.87 5.658 10.251 8.193 15.786 3.24 7.078 5.795 14.461 6.144 21.429.11 2.212.432 3.682.876 4.588.432.881.941 1.164 1.467 1.176.591.012 1.353-.312 2.263-.999.896-.675 1.865-1.648 2.86-2.806 3.878-4.516 7.908-11.576 9.081-13.63l.09-.159c12.887-22.552 30.484-36.423 49.82-51.666 2.641-2.081 5.314-4.189 8.012-6.348 2.216-1.772 7.71-5.999 12.875-8.06 2.569-1.026 5.166-1.561 7.261-.873 2.168.712 3.632 2.669 4.048 6.203.146 1.245 1.08 2.507 2.626 3.792 1.532 1.274 3.576 2.499 5.775 3.689 1.219.66 2.448 1.29 3.658 1.91 1 .512 1.986 1.018 2.943 1.528 2.068 1.103 3.928 2.192 5.145 3.274 1.509 1.341 3.034 2.527 4.537 3.681l.485.372c1.334 1.022 2.65 2.03 3.902 3.098 2.817 2.404 5.34 5.136 7.158 9.136 2.04 4.487 3.118 8.254 3.976 11.254l.057.198c.435 1.52.813 2.821 1.235 3.925.421 1.102.876 1.974 1.45 2.647 1.113 1.302 2.772 1.963 5.919 1.825 3.164-.139 7.723-1.082 14.506-2.877l.53-.14c8.597-2.276 17.105-4.527 25.371-7.742.568-.221 1.116-.215 1.619.002.486.211.885.6 1.214 1.065.655.924 1.136 2.291 1.511 3.732.379 1.454.663 3.043.895 4.446l.155.947c.163 1.004.299 1.846.432 2.411.902 3.832 1.161 7.334 1.329 10.425l.061 1.149c.136 2.618.253 4.88.71 6.805.515 2.172 1.451 3.858 3.309 5.079 1.885 1.238 4.776 2.035 9.284 2.272 3.302.174 5.551.758 7.103 1.715 1.575.972 2.381 2.297 2.857 3.827.363 1.167.541 2.487.726 3.858.052.384.104.772.161 1.162.265 1.808.637 3.725 1.512 5.693 1.282 2.883 4.63 4.538 9.373 5.466 4.714.922 10.621 1.092 16.761 1.168.863.011 1.731.019 2.6.028 5.293.054 10.645.108 15.39.588 5.503.558 10.314 1.697 13.289 4.176.093.078.122.059.122.058.036-.008.137-.056.292-.247.308-.38.648-1.099.996-2.129.687-2.035 1.333-5.057 1.89-8.342 1.112-6.568 1.844-14.056 1.844-16.522 0-10.304 4.334-20.044 10.422-27.872 4.06-5.22 4.164-11.237 3.969-17.526l-.047-1.415c-.201-5.804-.409-11.801 2.479-17.257 1.05-1.982 2.644-3.169 4.624-3.698 1.96-.524 4.272-.398 6.782.175 5.02 1.146 11.004 4.123 16.935 7.675 5.942 3.559 11.871 7.721 16.787 11.27 1.291.933 2.51 1.82 3.639 2.643 3.189 2.324 5.667 4.129 7.06 4.952 4.472 2.639 8.559 6.061 12.568 9.418.53.443 1.058.885 1.586 1.324 4.539 3.779 9.034 7.333 14.006 9.543 3.403 1.513 5.464 2.052 6.81 2.064.659.005 1.135-.117 1.512-.306.38-.19.691-.464 1.004-.811.157-.174.31-.362.474-.565.162-.201.334-.417.519-.633a7.467 7.467 0 011.384-1.295c1.161-.821 2.812-1.399 5.503-1.399 5.683 0 9.833 1.148 13.764 2.739 1.616.654 3.198 1.384 4.827 2.136l1.038.478c2.005.92 4.114 1.86 6.498 2.738 2.813 1.036 6.484.469 10.699-1.127 4.197-1.588 8.828-4.154 13.503-6.972 2.123-1.28 4.268-2.62 6.382-3.941 2.509-1.568 4.973-3.107 7.301-4.484 4.303-2.545 8.275-4.616 11.471-5.415 1.96-.49 4.561-.895 7.167-1.036 2.597-.142 5.245-.024 7.277.556.313.09.605.27.869.477.267.209.533.466.791.738.256.269.515.564.77.854l.009.01c.26.296.516.586.773.857.526.554.996.959 1.414 1.128.198.08.362.098.505.071.142-.027.31-.106.504-.3 2.4-2.4 4.365-5.285 6.229-8.331a234.251 234.251 0 001.985-3.329c1.169-1.987 2.347-3.987 3.603-5.882 3.955-5.965 8.83-11.115 17.316-12.421 5.419-.833 10.692 1.773 14.739 5.807 3.782 3.771 6.559 8.852 7.438 13.745.335-.392.777-.92 1.306-1.551l.007-.008a326.972 326.972 0 014.8-5.631c1.861-2.124 3.885-4.344 5.763-6.194 1.863-1.836 3.63-3.355 4.971-4.025 4.171-2.085 7.932-1.778 11.285-.602 2.378.834 4.591 2.125 6.583 3.288.776.453 1.519.886 2.224 1.265 2.6 1.396 4.617 2.019 6.355.915.892-.567 1.776-1.625 2.631-3.429.853-1.8 1.658-4.304 2.415-7.708 3.251-14.632 22.188-23.089 35.772-12.701.587.448 1.339 1.267 2.199 2.309.869 1.052 1.876 2.367 2.976 3.838.73.975 1.5 2.018 2.3 3.101 1.619 2.192 3.357 4.547 5.12 6.827 2.634 3.406 5.296 6.612 7.648 8.815 1.178 1.102 2.256 1.932 3.195 2.414.95.487 1.664.572 2.183.358.554-.228 1.091-.451 1.613-.668 6.618-2.744 10.921-4.528 18.889-4.528a.5.5 0 01.5.5z" fill="#fff"/><path d="M74.086 10h2.788c1.69 0 2.453-.841 2.453-1.957 0-1.125-.788-1.76-1.509-1.8v-.071c.668-.17 1.225-.625 1.225-1.534 0-1.076-.745-1.91-2.294-1.91h-2.663V10zm1.097-.94V6.73h1.623c.88 0 1.431.568 1.431 1.26 0 .611-.415 1.07-1.47 1.07h-1.584zm0-3.186V3.66h1.499c.87 0 1.285.459 1.285 1.062 0 .703-.575 1.15-1.314 1.15h-1.47zM82.129 10h4.602v-.944h-3.505V6.829h3.225v-.941h-3.225V3.672h3.463v-.945h-4.56V10zM89.104 10h.312c1.655 0 2.053-1.229 2.149-3.565l.113-2.777h2.483V10h1.083V2.727h-4.599l-.124 3.417c-.078 2.105-.334 2.876-1.204 2.897l-.213.007V10zM98.342 2.727V10h1.008l3.697-5.334h.068V10h1.097V2.727h-1.016l-3.7 5.341h-.068v-5.34h-1.086zM111.62 10h1.339l-3.001-3.984 3.019-3.289h-1.361l-2.83 3.072h-.376V2.727h-1.098V10h1.098V6.74h.753L111.62 10zM115.57 2.727V10h1.009l3.697-5.334h.067V10h1.097V2.727h-1.015l-3.701 5.341h-.067v-5.34h-1.087zM124.541 2.727V10h1.009l3.696-5.334h.068V10h1.097V2.727h-1.016l-3.7 5.341h-.067v-5.34h-1.087zm3.633-1.846c0 .359-.199.675-.696.675-.504 0-.693-.32-.693-.675h-.87c0 .799.608 1.35 1.563 1.35.962 0 1.569-.551 1.569-1.35h-.873zM69.537 22h1.097V18.83h3.626V22h1.101v-7.273h-1.1v3.161h-3.627v-3.16h-1.097V22zM84.776 18.364c0-2.326-1.392-3.736-3.274-3.736-1.889 0-3.277 1.41-3.277 3.736 0 2.322 1.388 3.736 3.277 3.736 1.882 0 3.275-1.41 3.275-3.736zm-1.086 0c0 1.772-.938 2.734-2.188 2.734-1.253 0-2.187-.962-2.187-2.734s.934-2.735 2.187-2.735c1.25 0 2.188.963 2.188 2.735zM87.644 22h2.788c1.69 0 2.454-.841 2.454-1.956 0-1.126-.788-1.762-1.51-1.8v-.072c.668-.17 1.226-.625 1.226-1.534 0-1.076-.746-1.91-2.294-1.91h-2.664V22zm1.098-.94v-2.33h1.623c.88 0 1.43.568 1.43 1.26 0 .611-.415 1.07-1.47 1.07h-1.583zm0-3.186V15.66h1.498c.87 0 1.286.458 1.286 1.062 0 .703-.575 1.15-1.314 1.15h-1.47zM100.222 14.727h-4.534V22h1.097v-6.328h3.437v-.945zM108.974 18.364c0-2.326-1.392-3.736-3.274-3.736-1.89 0-3.278 1.41-3.278 3.736 0 2.322 1.388 3.736 3.278 3.736 1.882 0 3.274-1.41 3.274-3.736zm-1.087 0c0 1.772-.937 2.734-2.187 2.734-1.254 0-2.188-.962-2.188-2.734s.934-2.735 2.188-2.735c1.25 0 2.187.963 2.187 2.735zM111.842 22h1.097v-2.557h1.492c1.686 0 2.521-1.019 2.521-2.361 0-1.339-.828-2.355-2.518-2.355h-2.592V22zm1.097-3.487v-2.845h1.378c1.087 0 1.53.59 1.53 1.414s-.443 1.431-1.516 1.431h-1.392zM126.056 18.364c0-2.326-1.392-3.736-3.274-3.736-1.89 0-3.278 1.41-3.278 3.736 0 2.322 1.388 3.736 3.278 3.736 1.882 0 3.274-1.41 3.274-3.736zm-1.087 0c0 1.772-.937 2.734-2.187 2.734-1.254 0-2.188-.962-2.188-2.734s.934-2.735 2.188-2.735c1.25 0 2.187.963 2.187 2.735zM128.373 23.758h1.052V22h4.882v1.747h1.051V21.07h-.823v-6.343h-4.485l-.171 3.072c-.11 2.024-.54 2.859-1.026 3.27h-.48v2.689zm1.772-2.688c.416-.664.696-1.733.785-3.27l.114-2.128h2.439v5.398h-3.338zM5.88 125.727H.269V133h1.094v-6.335h3.423V133H5.88v-7.273zM15.098 128.092c-.248-1.555-1.466-2.464-3.004-2.464-1.882 0-3.27 1.41-3.27 3.736 0 2.326 1.38 3.736 3.27 3.736 1.598 0 2.766-1.002 3.004-2.44l-1.108-.004c-.188.931-.97 1.442-1.889 1.442-1.246 0-2.187-.955-2.187-2.734 0-1.765.937-2.735 2.19-2.735.928 0 1.705.522 1.886 1.463h1.108zM22.219 133h1.339l-3.001-3.984 3.018-3.289h-1.36l-2.83 3.072h-.376v-3.072H17.91V133h1.098v-3.26h.752L22.22 133zM32.125 129.364c0-2.326-1.392-3.736-3.274-3.736-1.89 0-3.278 1.41-3.278 3.736 0 2.322 1.389 3.736 3.278 3.736 1.882 0 3.274-1.41 3.274-3.736zm-1.086 0c0 1.772-.938 2.734-2.188 2.734-1.253 0-2.187-.962-2.187-2.734s.933-2.735 2.187-2.735c1.25 0 2.188.963 2.188 2.735zM34.993 133h2.788c1.69 0 2.454-.842 2.454-1.957 0-1.125-.789-1.761-1.51-1.8v-.071c.668-.17 1.226-.625 1.226-1.534 0-1.076-.746-1.911-2.294-1.911h-2.664V133zm1.098-.941v-2.33h1.623c.88 0 1.43.569 1.43 1.261 0 .611-.415 1.069-1.47 1.069h-1.583zm0-3.185v-2.213h1.498c.87 0 1.286.458 1.286 1.062 0 .703-.576 1.151-1.314 1.151h-1.47zM163.483 153.672h2.266V160h1.094v-6.328h2.269v-.944h-5.629v.944zM171.856 160h2.787c1.691 0 2.454-.841 2.454-1.956 0-1.126-.788-1.762-1.509-1.801v-.071c.668-.17 1.225-.625 1.225-1.534 0-1.076-.746-1.91-2.294-1.91h-2.663V160zm1.097-.941v-2.329h1.623c.881 0 1.431.568 1.431 1.26 0 .611-.415 1.069-1.47 1.069h-1.584zm0-3.185v-2.213h1.499c.87 0 1.285.459 1.285 1.062 0 .703-.575 1.151-1.314 1.151h-1.47zM179.899 160h4.602v-.944h-3.505v-2.227h3.224v-.941h-3.224v-2.216h3.462v-.944h-4.559V160zM187.424 160h1.097v-2.557h1.492c1.687 0 2.521-1.019 2.521-2.361 0-1.339-.827-2.354-2.518-2.354h-2.592V160zm1.097-3.487v-2.844h1.378c1.087 0 1.531.589 1.531 1.413 0 .824-.444 1.431-1.517 1.431h-1.392zM196.429 155.661v-2.933h-1.101V160h2.723c1.62 0 2.547-.902 2.543-2.205.004-1.3-.923-2.134-2.543-2.134h-1.622zm0 .923h1.622c.941 0 1.46.54 1.46 1.197 0 .675-.519 1.296-1.46 1.296h-1.622v-2.493zM261.65 182v-7.273h-2.593c-1.686 0-2.517.941-2.517 2.28 0 .977.444 1.719 1.335 2.049L256.263 182h1.25l1.477-2.752h1.562V182h1.098zm-1.098-3.697h-1.392c-1.068 0-1.516-.475-1.516-1.296 0-.824.448-1.339 1.531-1.339h1.377v2.635zM264.744 182h1.098v-2.557h1.491c1.687 0 2.521-1.019 2.521-2.361 0-1.339-.827-2.355-2.517-2.355h-2.593V182zm1.098-3.487v-2.845h1.377c1.087 0 1.531.59 1.531 1.414s-.444 1.431-1.516 1.431h-1.392zM278.958 178.364c0-2.326-1.392-3.736-3.274-3.736-1.889 0-3.278 1.41-3.278 3.736 0 2.322 1.389 3.736 3.278 3.736 1.882 0 3.274-1.41 3.274-3.736zm-1.086 0c0 1.772-.938 2.734-2.188 2.734-1.254 0-2.187-.962-2.187-2.734s.933-2.735 2.187-2.735c1.25 0 2.188.963 2.188 2.735zM287.867 177.092c-.249-1.555-1.467-2.464-3.005-2.464-1.882 0-3.27 1.41-3.27 3.736 0 2.326 1.381 3.736 3.27 3.736 1.598 0 2.767-1.002 3.005-2.44l-1.108-.004c-.188.931-.97 1.442-1.889 1.442-1.247 0-2.188-.955-2.188-2.734 0-1.765.938-2.735 2.191-2.735.927 0 1.705.522 1.886 1.463h1.108zM290.129 182h.313c1.655 0 2.052-1.229 2.148-3.565l.114-2.777h2.482V182h1.083v-7.273h-4.598l-.125 3.417c-.078 2.105-.334 2.876-1.204 2.897l-.213.007V182zM299.982 182l.667-1.925h2.841l.664 1.925h1.165l-2.617-7.273h-1.268L298.817 182h1.165zm.987-2.848l1.072-3.104h.057l1.073 3.104h-2.202zM307.869 182h2.788c1.69 0 2.454-.842 2.454-1.957 0-1.125-.789-1.761-1.51-1.8v-.071c.668-.17 1.226-.625 1.226-1.534 0-1.076-.746-1.911-2.294-1.911h-2.664V182zm1.098-.941v-2.33h1.622c.881 0 1.432.569 1.432 1.261 0 .611-.416 1.069-1.471 1.069h-1.583zm0-3.185v-2.213h1.498c.87 0 1.286.458 1.286 1.062 0 .703-.576 1.151-1.314 1.151h-1.47zM315.362 182h.312c1.655 0 2.053-1.229 2.149-3.565l.113-2.777h2.483V182h1.083v-7.273h-4.599l-.124 3.417c-.078 2.105-.334 2.876-1.204 2.897l-.213.007V182zM325.708 177.661v-2.934h-1.101V182h2.724c1.619 0 2.546-.902 2.542-2.205.004-1.3-.923-2.134-2.542-2.134h-1.623zm0 .923h1.623c.941 0 1.459.54 1.459 1.197 0 .674-.518 1.296-1.459 1.296h-1.623v-2.493zM339.799 114.727V122h1.044v-5.266h.067l2.145 5.255h.867l2.145-5.252h.067V122h1.044v-7.273h-1.332l-2.315 5.654h-.085l-2.315-5.654h-1.332zM351.073 122l.668-1.925h2.841l.664 1.925h1.165l-2.617-7.273h-1.268L349.909 122h1.164zm.988-2.848l1.072-3.104h.057l1.072 3.104h-2.201zM358.961 122h1.097v-3.171h3.626V122h1.101v-7.273h-1.101v3.161h-3.626v-3.161h-1.097V122zM367.524 115.672h2.266V122h1.094v-6.328h2.269v-.945h-5.629v.945zM376.411 122.1h.498c1.136 0 1.512-.636 1.832-1.361l2.514-6.012h-1.15l-1.698 4.205-1.907-4.205h-1.165l2.557 5.458-.103.26c-.156.38-.397.689-.941.689h-.437v.966zM383.793 122h1.097v-2.557h1.492c1.687 0 2.521-1.019 2.521-2.361 0-1.339-.827-2.355-2.518-2.355h-2.592V122zm1.097-3.487v-2.845h1.378c1.087 0 1.531.59 1.531 1.414s-.444 1.431-1.517 1.431h-1.392zM398.007 118.364c0-2.326-1.392-3.736-3.274-3.736-1.889 0-3.278 1.41-3.278 3.736 0 2.322 1.389 3.736 3.278 3.736 1.882 0 3.274-1.41 3.274-3.736zm-1.087 0c0 1.772-.937 2.734-2.187 2.734-1.254 0-2.188-.962-2.188-2.734s.934-2.735 2.188-2.735c1.25 0 2.187.963 2.187 2.735zM400.875 122h2.788c1.69 0 2.453-.842 2.453-1.957 0-1.125-.788-1.761-1.509-1.8v-.071c.668-.17 1.225-.625 1.225-1.534 0-1.076-.745-1.911-2.294-1.911h-2.663V122zm1.097-.941v-2.33h1.623c.881 0 1.431.569 1.431 1.261 0 .611-.415 1.069-1.47 1.069h-1.584zm0-3.185v-2.213h1.499c.87 0 1.285.458 1.285 1.062 0 .703-.575 1.151-1.314 1.151h-1.47zM415.235 118.364c0-2.326-1.392-3.736-3.274-3.736-1.889 0-3.277 1.41-3.277 3.736 0 2.322 1.388 3.736 3.277 3.736 1.882 0 3.274-1.41 3.274-3.736zm-1.086 0c0 1.772-.938 2.734-2.188 2.734-1.253 0-2.187-.962-2.187-2.734s.934-2.735 2.187-2.735c1.25 0 2.188.963 2.188 2.735zM396.619 150h1.339l-3.001-3.984 3.019-3.289h-1.36l-2.831 3.072h-.376v-3.072h-1.097V150h1.097v-3.26h.753l2.457 3.26zM406.525 146.364c0-2.326-1.392-3.736-3.274-3.736-1.889 0-3.277 1.41-3.277 3.736 0 2.322 1.388 3.736 3.277 3.736 1.882 0 3.274-1.41 3.274-3.736zm-1.086 0c0 1.772-.938 2.734-2.188 2.734-1.253 0-2.187-.962-2.187-2.734s.934-2.735 2.187-2.735c1.25 0 2.188.963 2.188 2.735zM408.732 143.672h2.266V150h1.094v-6.328h2.269v-.945h-5.629v.945zM417.104 150h4.603v-.945h-3.505v-2.226h3.224v-.941h-3.224v-2.216h3.462v-.945h-4.56V150zM424.079 150h.313c1.655 0 2.053-1.229 2.148-3.565l.114-2.777h2.482V150h1.083v-7.273h-4.598l-.125 3.417c-.078 2.105-.333 2.876-1.203 2.897l-.214.007V150zM434.425 145.661v-2.934h-1.101V150h2.724c1.62 0 2.546-.902 2.543-2.205.003-1.3-.923-2.134-2.543-2.134h-1.623zm0 .923h1.623c.941 0 1.46.54 1.46 1.197 0 .674-.519 1.296-1.46 1.296h-1.623v-2.493zM441.429 150h1.097v-3.171h3.626V150h1.101v-7.273h-1.101v3.161h-3.626v-3.161h-1.097V150zM450.351 142.727V150h1.008l3.697-5.334h.067V150h1.098v-7.273h-1.016l-3.7 5.341h-.068v-5.341h-1.086zM459.467 142.727v2.401c-.004 1.623.98 2.262 2.571 2.262.699 0 1.303-.089 1.825-.238V150h1.087v-7.273h-1.087v3.488a7.452 7.452 0 01-1.825.234c-.948 0-1.488-.32-1.488-1.321v-2.401h-1.083zM471.264 145.906h-3.224v.919h3.224v-.919zM476.722 142.727h-1.023c-.039.199-.593 1.119-1.655 1.119v.902c.824 0 1.396-.327 1.517-.54h.06V150h1.101v-7.273zM528.334 181.727h-4.535V189h1.097v-6.328h3.438v-.945zM530.52 189h.312c1.655 0 2.053-1.229 2.149-3.565l.113-2.777h2.483V189h1.083v-7.273h-4.599l-.124 3.417c-.078 2.105-.334 2.876-1.204 2.897l-.213.007V189zM540.372 189l.668-1.925h2.841l.664 1.925h1.165l-2.618-7.273h-1.267L539.207 189h1.165zm.987-2.848l1.073-3.104h.057l1.072 3.104h-2.202zM550.692 189.1c1.485 0 2.575-.888 2.571-2.096.004-.919-.554-1.58-1.52-1.729v-.057c.76-.195 1.254-.792 1.25-1.609.004-1.068-.873-1.981-2.272-1.981-1.336 0-2.408.806-2.443 1.989h1.061c.025-.668.654-1.073 1.367-1.073.743 0 1.229.451 1.226 1.122.003.703-.561 1.165-1.368 1.165h-.614v.895h.614c1.009 0 1.591.511 1.591 1.243 0 .707-.614 1.186-1.47 1.186-.788 0-1.403-.405-1.445-1.051h-1.115c.046 1.186 1.097 1.996 2.567 1.996zM562.523 185.364c0-2.326-1.392-3.736-3.275-3.736-1.889 0-3.277 1.41-3.277 3.736 0 2.322 1.388 3.736 3.277 3.736 1.883 0 3.275-1.41 3.275-3.736zm-1.087 0c0 1.772-.938 2.734-2.188 2.734-1.253 0-2.187-.962-2.187-2.734s.934-2.735 2.187-2.735c1.25 0 2.188.963 2.188 2.735zM565.391 189h2.787c1.691 0 2.454-.842 2.454-1.957 0-1.125-.788-1.761-1.509-1.8v-.071c.667-.17 1.225-.625 1.225-1.534 0-1.076-.746-1.911-2.294-1.911h-2.663V189zm1.097-.941v-2.33h1.623c.88 0 1.431.569 1.431 1.261 0 .611-.416 1.069-1.47 1.069h-1.584zm0-3.185v-2.213h1.499c.87 0 1.285.458 1.285 1.062 0 .703-.575 1.151-1.314 1.151h-1.47zM531.565 117.251h-5.611v7.273h1.094v-6.336h3.423v6.336h1.094v-7.273zM534.743 124.524h4.602v-.945h-3.505v-2.226h3.225v-.942h-3.225v-2.215h3.462v-.945h-4.559v7.273zM542.268 124.524h1.098v-2.557h1.491c1.687 0 2.521-1.019 2.521-2.362 0-1.338-.827-2.354-2.517-2.354h-2.593v7.273zm1.098-3.488v-2.844h1.377c1.087 0 1.531.59 1.531 1.413 0 .824-.444 1.431-1.516 1.431h-1.392zM550.165 117.251v7.273h1.044v-5.267h.067l2.145 5.256h.867l2.144-5.252h.068v5.263h1.044v-7.273h-1.332l-2.315 5.653h-.085l-2.316-5.653h-1.331zM561.933 120.184v-2.933h-1.101v7.273h2.724c1.619 0 2.546-.902 2.542-2.206.004-1.299-.923-2.134-2.542-2.134h-1.623zm0 .924h1.623c.941 0 1.459.539 1.459 1.196 0 .675-.518 1.296-1.459 1.296h-1.623v-2.492zM598.44 155.672h2.266V162h1.094v-6.328h2.269v-.945h-5.629v.945zM607.91 154.727h-1.097V162h1.097v-3.089h1.275c.199 1.995 1.513 3.189 3.249 3.189 1.882 0 3.274-1.41 3.274-3.736 0-2.326-1.392-3.736-3.274-3.736-1.786 0-3.125 1.261-3.267 3.363h-1.257v-3.264zm6.712 3.637c0 1.772-.938 2.734-2.188 2.734-1.253 0-2.187-.962-2.187-2.734s.934-2.735 2.187-2.735c1.25 0 2.188.963 2.188 2.735zM618.391 154.727V162h1.044v-5.266h.067l2.145 5.255h.867l2.145-5.252h.067V162h1.044v-7.273h-1.332l-2.315 5.654h-.085l-2.315-5.654h-1.332zM629.051 162h4.602v-.945h-3.505v-2.226h3.225v-.941h-3.225v-2.216h3.463v-.945h-4.56V162zM636.576 162h1.098v-3.171h3.625V162h1.101v-7.273h-1.101v3.161h-3.625v-3.161h-1.098V162zM646.606 157.661v-2.934h-1.101V162h2.724c1.619 0 2.546-.902 2.543-2.205.003-1.3-.924-2.134-2.543-2.134h-1.623zm0 .923h1.623c.941 0 1.46.54 1.46 1.197 0 .674-.519 1.296-1.46 1.296h-1.623v-2.493zM697.454 180.364c0-2.326-1.392-3.736-3.274-3.736-1.889 0-3.278 1.41-3.278 3.736 0 2.322 1.389 3.736 3.278 3.736 1.882 0 3.274-1.41 3.274-3.736zm-1.086 0c0 1.772-.938 2.734-2.188 2.734-1.254 0-2.187-.962-2.187-2.734s.933-2.735 2.187-2.735c1.25 0 2.188.963 2.188 2.735zM700.322 176.727V184h1.044v-5.266h.068l2.145 5.255h.866l2.145-5.252h.067V184h1.045v-7.273h-1.332l-2.315 5.654h-.086l-2.315-5.654h-1.332zM717.023 179.092c-.249-1.555-1.467-2.464-3.004-2.464-1.882 0-3.271 1.41-3.271 3.736 0 2.326 1.381 3.736 3.271 3.736 1.598 0 2.766-1.002 3.004-2.44l-1.108-.004c-.188.931-.97 1.442-1.889 1.442-1.247 0-2.188-.955-2.188-2.734 0-1.765.938-2.735 2.191-2.735.927 0 1.705.522 1.886 1.463h1.108zM724.143 184h1.339l-3-3.984 3.018-3.289h-1.36l-2.83 3.072h-.377v-3.072h-1.097V184h1.097v-3.26h.753l2.457 3.26zM805.378 105h1.339l-3.001-3.984 3.018-3.289h-1.36l-2.83 3.072h-.376v-3.072h-1.098V105h1.098v-3.26h.752l2.458 3.26zM809.328 105h1.097v-2.557h1.492c1.687 0 2.521-1.019 2.521-2.361 0-1.339-.827-2.355-2.518-2.355h-2.592V105zm1.097-3.487v-2.845h1.378c1.087 0 1.531.59 1.531 1.414s-.444 1.431-1.517 1.431h-1.392zM817.067 105l.668-1.925h2.841l.664 1.925h1.165l-2.617-7.273h-1.268L815.903 105h1.164zm.988-2.848l1.072-3.104h.057l1.072 3.104h-2.201zM830.654 100.092c-.249-1.555-1.467-2.464-3.004-2.464-1.883 0-3.271 1.41-3.271 3.736 0 2.326 1.381 3.736 3.271 3.736 1.598 0 2.766-1.002 3.004-2.44l-1.108-.004c-.188.931-.97 1.442-1.889 1.442-1.247 0-2.188-.955-2.188-2.734 0-1.765.938-2.735 2.191-2.735.927 0 1.705.522 1.886 1.463h1.108zM833.467 105h1.097v-3.171h3.626V105h1.101v-7.273h-1.101v3.161h-3.626v-3.16h-1.097V105zM848.706 101.364c0-2.326-1.392-3.736-3.274-3.736-1.889 0-3.278 1.41-3.278 3.736 0 2.322 1.389 3.736 3.278 3.736 1.882 0 3.274-1.41 3.274-3.736zm-1.087 0c0 1.772-.937 2.734-2.187 2.734-1.254 0-2.188-.962-2.188-2.734s.934-2.735 2.188-2.735c1.25 0 2.187.963 2.187 2.735zM856.425 105v-7.273h-2.592c-1.687 0-2.518.941-2.518 2.28 0 .977.444 1.719 1.335 2.049L851.038 105h1.25l1.477-2.752h1.563V105h1.097zm-1.097-3.697h-1.392c-1.069 0-1.517-.475-1.517-1.296 0-.824.448-1.339 1.531-1.339h1.378v2.635zM859.52 105h1.097v-2.557h1.491c1.687 0 2.522-1.019 2.522-2.361 0-1.339-.828-2.355-2.518-2.355h-2.592V105zm1.097-3.487v-2.845h1.378c1.086 0 1.53.59 1.53 1.414s-.444 1.431-1.516 1.431h-1.392zM873.456 100.092c-.248-1.555-1.466-2.464-3.004-2.464-1.882 0-3.27 1.41-3.27 3.736 0 2.326 1.381 3.736 3.27 3.736 1.598 0 2.767-1.002 3.004-2.44l-1.107-.004c-.189.931-.97 1.442-1.89 1.442-1.246 0-2.187-.955-2.187-2.734 0-1.765.937-2.735 2.191-2.735.927 0 1.704.522 1.886 1.463h1.107zM880.577 105h1.339l-3.001-3.984 3.019-3.289h-1.36l-2.831 3.072h-.376v-3.072h-1.097V105h1.097v-3.26h.753l2.457 3.26zM875.893 162.1h.497c1.136 0 1.513-.636 1.832-1.361l2.515-6.012h-1.151l-1.697 4.205-1.907-4.205h-1.165l2.557 5.458-.103.26c-.157.38-.398.689-.941.689h-.437v.966zM882.724 162h.313c1.654 0 2.052-1.229 2.148-3.565l.114-2.777h2.482V162h1.083v-7.273h-4.599l-.124 3.417c-.078 2.105-.334 2.876-1.204 2.897l-.213.007V162zM892.576 162l.668-1.925h2.841l.664 1.925h1.165l-2.618-7.273h-1.267L891.412 162h1.164zm.988-2.848l1.072-3.104h.057l1.072 3.104h-2.201zM900.464 162h1.097v-3.171h3.626V162h1.101v-7.273h-1.101v3.161h-3.626v-3.161h-1.097V162zM912.514 157.906h-3.224v.919h3.224v-.919zM915.395 162.1h.497c1.136 0 1.513-.636 1.832-1.361l2.515-6.012h-1.151l-1.697 4.205-1.907-4.205h-1.165l2.557 5.458-.103.26c-.157.38-.398.689-.941.689h-.437v.966zM922.226 163.758h1.051V162h4.883v1.747h1.051v-2.677h-.824v-6.343h-4.485l-.17 3.072c-.11 2.024-.54 2.859-1.027 3.271h-.479v2.688zm1.772-2.688c.415-.664.696-1.733.785-3.271l.113-2.127h2.44v5.398h-3.338zM931.682 159.692c.139 1.378 1.041 2.408 2.795 2.408s2.876-1.311 2.876-3.349v-.757c0-2.038-1.136-3.366-2.936-3.366-1.712 0-2.596 1.044-2.738 2.45h1.118c.114-.944.558-1.505 1.62-1.505 1.168 0 1.821.944 1.825 2.414h-2.681v.931h2.677c-.046 1.282-.607 2.251-1.761 2.251-1.09 0-1.555-.518-1.68-1.477h-1.115z" fill="#fff"/><path d="M106.743 34.337a3.493 3.493 0 11-6.986 0 3.493 3.493 0 016.986 0z" fill="#272722"/><path fill-rule="evenodd" clip-rule="evenodd" d="M103.25 36.83a2.493 2.493 0 100-4.986 2.493 2.493 0 000 4.986zm0 1a3.493 3.493 0 100-6.987 3.493 3.493 0 000 6.987z" fill="#fff"/><path d="M20.986 115.493a3.493 3.493 0 11-6.986 0 3.493 3.493 0 016.986 0z" fill="#131313"/><path fill-rule="evenodd" clip-rule="evenodd" d="M17.493 117.986a2.493 2.493 0 100-4.986 2.493 2.493 0 000 4.986zm0 1a3.493 3.493 0 100-6.986 3.493 3.493 0 000 6.986z" fill="#fff"/><path d="M215.023 156.59a3.493 3.493 0 11-6.986 0 3.493 3.493 0 016.986 0z" fill="#4D5648"/><path fill-rule="evenodd" clip-rule="evenodd" d="M211.53 159.083a2.493 2.493 0 100-4.987 2.493 2.493 0 000 4.987zm0 1a3.493 3.493 0 100-6.986 3.493 3.493 0 000 6.986z" fill="#fff"/><path d="M247.333 178.421a3.493 3.493 0 11-6.986 0 3.493 3.493 0 016.986 0z" fill="#47443E"/><path fill-rule="evenodd" clip-rule="evenodd" d="M243.84 180.914a2.494 2.494 0 000-4.986 2.493 2.493 0 100 4.986zm0 1a3.493 3.493 0 100-6.986 3.493 3.493 0 000 6.986z" fill="#fff"/><path d="M335.529 127.773a3.493 3.493 0 11-6.986 0 3.493 3.493 0 016.986 0z" fill="#93A47C"/><path fill-rule="evenodd" clip-rule="evenodd" d="M332.036 130.266a2.493 2.493 0 100-4.986 2.493 2.493 0 000 4.986zm0 1a3.493 3.493 0 100-6.986 3.493 3.493 0 000 6.986z" fill="#fff"/><path d="M413.246 161.83a3.493 3.493 0 11-6.986 0 3.493 3.493 0 016.986 0z" fill="#738F8C"/><path fill-rule="evenodd" clip-rule="evenodd" d="M409.753 164.323a2.493 2.493 0 100-4.986 2.493 2.493 0 000 4.986zm0 1a3.493 3.493 0 100-6.986 3.493 3.493 0 000 6.986z" fill="#fff"/><path d="M515.414 185.406a3.493 3.493 0 11-6.986 0 3.493 3.493 0 016.986 0z" fill="#789186"/><path fill-rule="evenodd" clip-rule="evenodd" d="M511.921 187.899a2.493 2.493 0 100-4.987 2.493 2.493 0 000 4.987zm0 1a3.493 3.493 0 100-6.986 3.493 3.493 0 000 6.986z" fill="#fff"/><path d="M548.596 133.886a3.493 3.493 0 11-6.985 0 3.493 3.493 0 016.985 0z" fill="#8CBABB"/><path fill-rule="evenodd" clip-rule="evenodd" d="M545.103 136.379a2.493 2.493 0 100-4.986 2.493 2.493 0 000 4.986zm0 1a3.493 3.493 0 100-6.985 3.493 3.493 0 000 6.985z" fill="#fff"/><path d="M605.356 173.181a3.492 3.492 0 11-6.985.001 3.492 3.492 0 016.985-.001z" fill="#414847"/><path fill-rule="evenodd" clip-rule="evenodd" d="M601.864 175.674a2.493 2.493 0 10-.001-4.985 2.493 2.493 0 00.001 4.985zm0 1a3.492 3.492 0 100-6.985 3.492 3.492 0 000 6.985z" fill="#fff"/><path d="M711.017 160.083a3.493 3.493 0 11-6.986 0 3.493 3.493 0 016.986 0z" fill="#577379"/><path fill-rule="evenodd" clip-rule="evenodd" d="M707.524 162.576a2.493 2.493 0 100-4.987 2.493 2.493 0 000 4.987zm0 1a3.493 3.493 0 100-6.986 3.493 3.493 0 000 6.986z" fill="#fff"/><path d="M845.947 112.928a3.493 3.493 0 11-6.985 0 3.493 3.493 0 016.985 0z" fill="#3E403A"/><path fill-rule="evenodd" clip-rule="evenodd" d="M842.454 115.421a2.493 2.493 0 100-4.986 2.493 2.493 0 000 4.986zm0 1a3.493 3.493 0 100-6.985 3.493 3.493 0 000 6.985z" fill="#fff"/><path d="M908.986 140.493a3.493 3.493 0 11-6.986 0 3.493 3.493 0 016.986 0z" fill="#181A19"/><path fill-rule="evenodd" clip-rule="evenodd" d="M905.493 142.986a2.493 2.493 0 100-4.986 2.493 2.493 0 000 4.986zm0 1a3.493 3.493 0 100-6.986 3.493 3.493 0 000 6.986z" fill="#fff"/></svg>